<?xml version="1.0" encoding="UTF-8" standalone="no"?>
<svg
   xmlns:dc="http://purl.org/dc/elements/1.1/"
   xmlns:cc="http://creativecommons.org/ns#"
   xmlns:rdf="http://www.w3.org/1999/02/22-rdf-syntax-ns#"
   xmlns:svg="http://www.w3.org/2000/svg"
   xmlns="http://www.w3.org/2000/svg"
   xmlns:sodipodi="http://sodipodi.sourceforge.net/DTD/sodipodi-0.dtd"
   xmlns:inkscape="http://www.inkscape.org/namespaces/inkscape"
   inkscape:version="1.0 (1.0+r73+1)"
   sodipodi:docname="phone-icon.svg"
   viewBox="0 0 27.662674 28.892359"
   height="28.892359"
   width="27.662674"
   xml:space="preserve"
   id="svg56"
   version="1.1"><metadata
     id="metadata62"><rdf:RDF><cc:Work
         rdf:about=""><dc:format>image/svg+xml</dc:format><dc:type
           rdf:resource="http://purl.org/dc/dcmitype/StillImage" /><dc:title></dc:title></cc:Work></rdf:RDF></metadata><defs
     id="defs60"><clipPath
       id="clipPath72"
       clipPathUnits="userSpaceOnUse"><path
         id="path70"
         clip-rule="evenodd"
         d="m 9.090124,9.347481 c -1.8057,2.095032 -2.101416,4.078063 -2.142806,4.866847 -0.011735,0.218121 0.078691,0.429287 0.244651,0.571316 l 1.69535,1.460555 c 0.249384,0.214811 0.317408,0.573366 0.164026,0.864587 l -2.223561,4.088541 c -0.169671,0.322461 -0.556736,0.463007 -0.893775,0.32454 L 1.758824,19.923117 C 1.486426,19.813204 1.31114,19.54545 1.319363,19.251829 1.381795,17.228006 1.891114,12.226558 6.382505,7.015115 10.873896,1.803673 15.744791,0.562437 17.738314,0.202023 c 0.289194,-0.051451 0.579878,0.08241 0.728775,0.335613 l 2.19922,3.893324 c 0.186022,0.312267 0.104777,0.714716 -0.187816,0.930362 L 16.762699,8.163053 C 16.497467,8.357892 16.132837,8.343806 15.883427,8.129084 L 14.188728,6.667773 C 14.023767,6.524583 13.801573,6.466302 13.58757,6.510089 12.813524,6.667401 10.895823,7.252448 9.090124,9.347481 Z" /></clipPath><clipPath
       id="clipPath84"
       clipPathUnits="userSpaceOnUse"><path
         id="path82"
         clip-rule="evenodd"
         d="m 18.388222,12.333052 c -0.313248,0.0384 -0.536059,0.323458 -0.497662,0.636705 0.285181,2.348576 -1.384533,4.484802 -3.732456,4.775297 -0.313248,0.0384 -0.536058,0.32346 -0.497662,0.636706 0.0384,0.313247 0.32346,0.536058 0.636707,0.497661 2.974082,-0.36788 5.089095,-3.073823 4.727778,-6.04871 -0.0384,-0.313245 -0.323459,-0.536056 -0.636705,-0.497659 z" /></clipPath><clipPath
       id="clipPath96"
       clipPathUnits="userSpaceOnUse"><path
         id="path94"
         clip-rule="evenodd"
         d="m 21.356781,11.969188 c -0.318298,0.03902 -0.544701,0.328676 -0.505686,0.646975 0.483023,3.977442 -2.344744,7.59528 -6.321096,8.087197 -0.3183,0.03901 -0.544703,0.328676 -0.505688,0.646974 0.03902,0.3183 0.328677,0.544705 0.646977,0.505688 4.612607,-0.570549 7.892856,-4.767292 7.332469,-9.381147 -0.01873,-0.152853 -0.09742,-0.292002 -0.218755,-0.386837 -0.121332,-0.09483 -0.275366,-0.137586 -0.428221,-0.11885 z" /></clipPath></defs><sodipodi:namedview
     inkscape:current-layer="g64"
     inkscape:window-maximized="1"
     inkscape:window-y="27"
     inkscape:window-x="0"
     inkscape:cy="16.641043"
     inkscape:cx="47.151629"
     inkscape:zoom="13.733278"
     showgrid="false"
     id="namedview58"
     inkscape:window-height="978"
     inkscape:window-width="1920"
     inkscape:pageshadow="2"
     inkscape:pageopacity="0"
     guidetolerance="10"
     gridtolerance="10"
     objecttolerance="10"
     borderopacity="1"
     bordercolor="#666666"
     pagecolor="#ffffff" /><g
     transform="matrix(1.3333333,0,0,-1.3333333,38.265293,29.565364)"
     inkscape:label="Frame 1"
     inkscape:groupmode="layer"
     id="g64"><g
       transform="translate(-30.018056,0.31362828)"
       id="g66"><g
         clip-path="url(#clipPath72)"
         id="g68"><g
           transform="rotate(-4.2421024,-0.89878029,1.5473272)"
           id="g74"><path
             id="path76"
             style="fill:#a0148e;fill-opacity:1;fill-rule:nonzero;stroke:none"
             d="m 5.988837,14.760006 0.992015,0.126127 -1.69e-4,0.0013 -0.991846,-0.127441 z m 0.20172,0.587849 0.704627,-0.709586 0.00232,0.0023 -0.706949,0.707264 z m 1.582666,1.58196 -0.706888,0.707325 -6.1e-5,-6.1e-5 z m 0.099623,0.874352 0.847964,0.530222 -0.00722,0.01122 -0.84074,-0.541441 z m -2.519902,3.912861 -0.848181,-0.529885 0.00744,-0.01156 0.840739,0.541441 z m -0.915332,0.257536 0.426075,-0.904688 0.010723,0.0051 0.010601,0.0053 -0.447399,0.894333 z m -4.045338,-1.905205 -0.426075,0.904688 -0.007874,-0.0037 -0.007808,-0.0038 0.441757,-0.897135 z m -0.388602,-0.701956 -0.994803,-0.10186 2.98e-4,-0.0028 0.994505,0.104685 z M 17.78677,1.584307 17.682138,0.589792 l 0.0028,-2.84e-4 0.10186,0.994799 z m 0.701954,0.388601 0.897135,-0.441757 0.0038,0.00781 0.0037,0.00787 -0.90469,0.426075 z m 1.905205,4.045338 -0.894618,0.44683 -0.0052,-0.010319 -0.0049,-0.010436 0.904688,-0.426075 z m -0.256123,0.913919 -0.541365,-0.840858 0.0092,-0.00581 0.532118,0.84667 z m -3.912861,2.519196 0.541376,0.840873 -0.01059,0.0066 -0.53079,-0.847503 z m -0.874351,-0.098916 -0.70671,0.707503 -5.55e-4,-5.54e-4 z m -1.581961,-1.582667 -0.707268,0.706953 -0.0023,-0.00233 0.709581,-0.704623 z m -0.587848,-0.201719 0.127441,0.991847 -0.0013,1.67e-4 L 13.1808,7.568059 Z M 9.192883,10.772104 C 7.431307,12.53368 7.060019,14.263462 6.980851,14.886133 L 4.996823,14.633881 C 5.116902,13.689428 5.628798,11.507762 7.77867,9.35789 Z m -2.2122,4.115343 C 6.992483,14.79561 6.96088,14.703514 6.89518,14.638273 L 5.485934,16.057436 C 5.110235,15.684362 4.929515,15.157717 4.996991,14.632566 Z m -0.083177,-0.246856 1.582666,1.581958 -1.413898,1.41453 -1.582666,-1.58196 z m 1.582605,1.581897 c 0.56232,0.561974 0.662109,1.437788 0.240624,2.111855 L 7.024958,17.273993 C 6.952481,17.389902 6.96964,17.540504 7.066335,17.63714 Z m 0.233475,2.12312 -2.519902,3.912861 -1.681479,-1.082882 2.519902,-3.912861 z m -2.51254,3.901254 C 5.734745,22.993265 4.777305,23.26265 3.990213,22.868898 l 0.894798,-1.788667 c -0.135346,-0.06771 -0.299984,-0.02139 -0.380168,0.106962 z m -2.189509,0.632391 -4.045338,-1.905206 0.852149,-1.809376 4.045339,1.905205 z m -4.06102,-1.912759 c -0.638555,-0.314431 -1.014144,-0.99288 -0.941643,-1.700949 l 1.989597,0.203718 c 0.012661,-0.123651 -0.052929,-0.24213 -0.16444,-0.297039 z m -0.94135,-1.703776 C -0.764251,17.110184 0.170864,11.912131 5.25097,6.831656 L 6.665235,8.245818 C 2.01618,12.89521 1.195524,17.597301 0.998178,19.472088 Z M 5.25097,6.831656 C 10.33112,1.751139 15.528522,0.816374 17.68214,0.589796 l 0.209259,1.989023 C 16.015577,2.776169 11.314246,3.59647 6.665235,8.245818 Z M 17.68491,0.589508 c 0.708069,-0.0725 1.386518,0.303087 1.700949,0.941643 l -1.79427,0.883514 c 0.05491,0.111513 0.173391,0.177101 0.297041,0.16444 z m 1.708504,0.957325 1.905204,4.04534 -1.809377,0.852148 -1.905205,-4.045338 z m 1.895134,4.024584 c 0.392276,0.785392 0.124677,1.740266 -0.618622,2.207418 L 19.605688,6.085495 C 19.477871,6.165826 19.431856,6.330024 19.499311,6.465076 Z M 20.67914,7.772973 16.766279,10.29217 15.683613,8.610553 19.596474,6.091357 Z m -3.923405,2.525891 c -0.673681,0.421926 -1.549455,0.32285 -2.111851,-0.238916 l 1.41342,-1.415007 C 15.960595,8.548342 15.809999,8.531305 15.694156,8.603858 Z m -2.112406,-0.23947 -1.58196,-1.582667 1.414529,-1.413898 1.58196,1.582666 z M 13.059052,8.474401 c 0.06524,0.065702 0.15734,0.097304 0.249174,0.085504 L 13.053345,6.576213 c 0.525147,-0.067475 1.051795,0.113241 1.42487,0.488942 z m 0.247859,0.085672 C 12.68424,8.63924 10.954459,9.010529 9.192883,10.772104 L 7.77867,9.35789 C 9.928541,7.208019 12.110208,6.696124 13.054659,6.576045 Z" /></g></g></g><g
       transform="translate(-30.018056,0.31362828)"
       id="g78"><g
         clip-path="url(#clipPath84)"
         id="g80"><g
           transform="rotate(-6.9882057,107.28818,-99.614031)"
           id="g86"><path
             id="path88"
             style="fill:#a0148e;fill-opacity:1;fill-rule:nonzero;stroke:none"
             d="m 4.857143,1.256853 h 1.000001 l -2e-6,0.00113 z m -4.285714,4.285715 0.001131,1 H 0.571429 Z m 0,1.142857 0.001103,1 H 0.571429 Z M 6,1.256853 H 7.000001 L 7,1.257957 Z M 5.428572,1.685424 c 0.236693,0 0.428571,-0.191878 0.428571,-0.428571 h -2 c 0,-0.867876 0.703553,-1.571429 1.571429,-1.571429 z M 5.857142,1.257985 C 5.853842,4.175211 3.489786,6.539267 0.57256,6.542567 L 0.570297,4.542568 C 2.384722,4.540515 3.855091,3.070146 3.857144,1.255722 l 1.999998,0.00226 z M 0.571429,6.542568 C 0.808122,6.542568 1,6.35069 1,6.113996 H -1 C -1,5.24612 -0.296447,4.542568 0.571429,4.542568 Z M 1,6.113996 C 1,5.877303 0.808122,5.685425 0.571429,5.685425 v 2 C -0.296447,7.685425 -1,6.981872 -1,6.113996 Z M 0.570325,5.685425 C 3.015649,5.682727 4.997303,3.701073 5.000001,1.25575 L 7,1.257957 C 6.996085,4.806126 4.120701,7.681509 0.572532,7.685424 Z M 5,1.256853 c 0,0.236693 0.191878,0.428571 0.428572,0.428571 v -2 C 6.296448,-0.314576 7,0.388977 7,1.256853 Z" /></g></g></g><g
       transform="translate(-30.018056,0.31362828)"
       id="g90"><g
         clip-path="url(#clipPath96)"
         id="g92"><g
           transform="rotate(-6.9882057,104.48185,-99.442653)"
           id="g98"><path
             id="path100"
             style="fill:#a0148e;fill-opacity:1;fill-rule:nonzero;stroke:none"
             d="M 7.838709,1.608783 H 8.83871 l -1e-6,0.00112 z m -7.258064,7.258064 0.001118,1 H 0.580645 Z m 0,1.16129 0.001102,1 H 0.580645 Z M 9,1.608783 h 1 l -10e-7,0.0011 z M 8.829933,1.198205 9.53704,0.491097 v 10e-7 z M 8.419354,2.028138 c 0.231604,0 0.419356,-0.187753 0.419356,-0.419355 H 6.838709 c 0,-0.872967 0.707679,-1.580646 1.580645,-1.580646 z M 8.838709,1.6099 C 8.833612,6.167974 5.139836,9.86175 0.581763,9.866846 L 0.579527,7.866848 C 4.034777,7.862984 6.834846,5.062914 6.83871,1.607664 Z M 0.580645,9.866847 C 0.812248,9.866847 1,9.679095 1,9.447492 H -1 C -1,8.574526 -0.292321,7.866847 0.580645,7.866847 Z M 1,9.447492 C 1,9.215889 0.812248,9.028137 0.580645,9.028137 v 2 C -0.292321,11.028137 -1,10.320458 -1,9.447492 Z M 0.579544,9.028138 C 4.675878,9.023625 7.995488,5.704016 8,1.607681 l 1.999999,0.0022 C 9.994271,6.809067 5.78093,11.022409 0.581747,11.028136 Z M 8,1.608783 C 8,1.720001 8.044181,1.826666 8.122827,1.905312 L 9.53704,0.491098 C 9.833469,0.787527 10,1.189571 10,1.608783 Z M 8.122827,1.905312 C 8.20147,1.983955 8.308135,2.028138 8.419354,2.028138 V 0.028137 c 0.419214,0 0.821257,0.166532 1.117686,0.46296 z" /></g></g></g></g></svg>
