<svg width="62" height="52" viewBox="0 0 62 52" fill="none" xmlns="http://www.w3.org/2000/svg">
<path d="M60.1929 0.00203856H49.747C49.5105 0.00217357 49.2838 0.096166 49.1166 0.263367C48.9494 0.430569 48.8554 0.657304 48.8552 0.893762V3.30804L46.577 2.32001C46.4651 2.27137 46.3444 2.24627 46.2224 2.24627C46.1003 2.24627 45.9796 2.27137 45.8677 2.32001L42.6983 3.69581L39.5283 2.32001C39.4164 2.27137 39.2957 2.24627 39.1737 2.24627C39.0516 2.24627 38.9309 2.27137 38.819 2.32001L35.6491 3.69581L32.4796 2.32001C32.3676 2.27136 32.2468 2.24625 32.1247 2.24625C32.0026 2.24625 31.8818 2.27136 31.7698 2.32001L28.6004 3.69581L25.4309 2.32001C25.3189 2.27136 25.1981 2.24625 25.076 2.24625C24.9539 2.24625 24.8331 2.27136 24.7211 2.32001L22.4434 3.30804V0.891724C22.4433 0.655265 22.3493 0.428531 22.1821 0.261329C22.0149 0.0941279 21.7881 0.000135003 21.5517 0H1.59387C1.35741 0.000135003 1.13068 0.0941279 0.963477 0.261329C0.796276 0.428531 0.702283 0.655265 0.702148 0.891724V50.4756C0.702823 50.7118 0.797053 50.938 0.964196 51.1047C1.13134 51.2715 1.35777 51.3652 1.59387 51.3653H21.5517C21.7881 51.3652 22.0149 51.2712 22.1821 51.104C22.3493 50.9368 22.4433 50.7101 22.4434 50.4736V48.0593L24.7211 49.0474C24.8331 49.096 24.9539 49.1211 25.076 49.1211C25.1981 49.1211 25.3189 49.096 25.4309 49.0474L28.6004 47.6716L31.7698 49.0474C31.8818 49.096 32.0026 49.1211 32.1247 49.1211C32.2468 49.1211 32.3676 49.096 32.4796 49.0474L35.6491 47.6716L38.819 49.0474C38.9309 49.0961 39.0516 49.1212 39.1737 49.1212C39.2957 49.1212 39.4164 49.0961 39.5283 49.0474L42.6983 47.6716L45.8677 49.0474C45.9796 49.096 46.1003 49.1211 46.2224 49.1211C46.3444 49.1211 46.4651 49.096 46.577 49.0474L48.8552 48.0593V50.4736C48.8554 50.7101 48.9494 50.9368 49.1166 51.104C49.2838 51.2712 49.5105 51.3652 49.747 51.3653H60.1929C60.4293 51.3652 60.6561 51.2712 60.8233 51.104C60.9905 50.9368 61.0845 50.7101 61.0846 50.4736V0.891724C61.0839 0.655619 60.9897 0.429407 60.8225 0.262646C60.6554 0.0958848 60.429 0.00217244 60.1929 0.00203856ZM25.9675 4.4948L27.7086 5.25047V46.1169L25.9675 46.8716V4.4948ZM29.4921 5.25047L31.2332 4.49582V46.8736L29.4921 46.1169V5.25047ZM33.0167 4.49582L34.7573 5.25047V46.1169L33.0167 46.8716V4.49582ZM36.5408 5.25047L38.2819 4.4948V46.8726L36.5408 46.1169V5.25047ZM40.0654 4.4948L41.8065 5.25047V46.1169L40.0654 46.8726V4.4948ZM43.59 5.25047L45.3306 4.49582V46.8736L43.59 46.1169V5.25047ZM7.32638 10.2059H14.5453V11.4375H7.32638C7.08988 11.4375 6.86307 11.5315 6.69584 11.6987C6.52861 11.8659 6.43466 12.0927 6.43466 12.3292V12.9662H2.4856V8.67724H6.43466V9.31418C6.43479 9.55064 6.52879 9.77738 6.69599 9.94458C6.86319 10.1118 7.08992 10.2058 7.32638 10.2059ZM14.5453 14.4948H8.21811V13.221H14.5453V14.4948ZM7.32638 16.2783H14.5453V20.2274H7.32638C7.08988 20.2274 6.86307 20.3213 6.69584 20.4885C6.52861 20.6558 6.43466 20.8826 6.43466 21.1191V21.756H2.4856V14.7496H6.43466V15.3866C6.43479 15.623 6.52879 15.8498 6.69599 16.017C6.86319 16.1842 7.08992 16.2782 7.32638 16.2783ZM14.5453 23.2847H8.21811V22.0108H14.5453V23.2847ZM6.43466 23.5395V24.1764C6.43479 24.4129 6.52879 24.6396 6.69599 24.8068C6.86319 24.974 7.08992 25.068 7.32638 25.0681H14.5453V26.2992H7.32638C7.08992 26.2994 6.86319 26.3934 6.69599 26.5606C6.52879 26.7278 6.43479 26.9545 6.43466 27.191V27.8279H2.4856V23.5395H6.43466ZM14.5453 29.3566H8.21811V28.0827H14.5453V29.3566ZM6.43466 29.6113V30.2483C6.43466 30.4848 6.52861 30.7116 6.69584 30.8788C6.86307 31.0461 7.08988 31.14 7.32638 31.14H14.5453V35.0891H7.32638C7.08992 35.0892 6.86319 35.1832 6.69599 35.3504C6.52879 35.5176 6.43479 35.7443 6.43466 35.9808V36.6177H2.4856V29.6113H6.43466ZM8.21811 36.8725H14.5453V38.1464H8.21811V36.8725ZM14.5453 8.42246H8.21811V7.14857H14.5453V8.42246ZM2.4856 38.4012H6.43466V39.0381C6.43466 39.2746 6.52861 39.5015 6.69584 39.6687C6.86307 39.8359 7.08988 39.9299 7.32638 39.9299H14.5453V41.1615H7.32638C7.08992 41.1616 6.86319 41.2556 6.69599 41.4228C6.52879 41.59 6.43479 41.8167 6.43466 42.0532V42.6901H2.4856V38.4012ZM8.21811 42.9449H14.5453V44.2188H8.21811V42.9449ZM14.5453 1.78549V5.36716H7.32638C7.09028 5.36729 6.86385 5.46101 6.69671 5.62777C6.52956 5.79453 6.43533 6.02074 6.43466 6.25684V6.89379H2.4856V1.78549H14.5453ZM2.4856 44.4736H6.43466V45.1105C6.43479 45.347 6.52879 45.5737 6.69599 45.7409C6.86319 45.9081 7.08992 46.0021 7.32638 46.0022H14.5453V49.5819H2.4856V44.4736ZM20.6599 49.5819H16.3287V1.78549H20.6599V49.5819ZM22.4434 5.24741L24.184 4.49276V46.8705L22.4434 46.1169V5.24741ZM48.8552 46.1169L47.1141 46.8716V4.4948L48.8552 5.25047V46.1169ZM59.3012 49.5819H50.6387V1.78549H59.3012V49.5819Z" fill="#A0148E"/>
<path d="M54.9699 11.8197C55.4486 11.8197 55.9166 11.6777 56.3146 11.4118C56.7127 11.1458 57.0229 10.7678 57.2061 10.3255C57.3893 9.88325 57.4372 9.39659 57.3438 8.92708C57.2504 8.45757 57.0199 8.0263 56.6814 7.6878C56.3429 7.3493 55.9116 7.11878 55.4421 7.02539C54.9726 6.932 54.4859 6.97993 54.0437 7.16312C53.6014 7.34632 53.2234 7.65655 52.9574 8.05458C52.6915 8.45261 52.5495 8.92057 52.5495 9.39928C52.5503 10.041 52.8056 10.6561 53.2593 11.1099C53.7131 11.5636 54.3282 11.8189 54.9699 11.8197ZM54.9699 8.76233C55.0959 8.76233 55.219 8.79969 55.3238 8.86967C55.4285 8.93966 55.5102 9.03914 55.5584 9.15553C55.6066 9.27191 55.6192 9.39998 55.5946 9.52354C55.5701 9.64709 55.5094 9.76059 55.4203 9.84967C55.3312 9.93874 55.2177 9.99941 55.0942 10.024C54.9706 10.0486 54.8426 10.0359 54.7262 9.98774C54.6098 9.93953 54.5103 9.85789 54.4403 9.75314C54.3703 9.6484 54.333 9.52525 54.333 9.39928C54.3331 9.23039 54.4003 9.06846 54.5197 8.94904C54.6391 8.82962 54.801 8.76247 54.9699 8.76233Z" fill="#A0148E"/>
<path d="M54.9699 19.9619C55.4486 19.9619 55.9166 19.8199 56.3146 19.554C56.7127 19.288 57.0229 18.91 57.2061 18.4677C57.3893 18.0255 57.4372 17.5388 57.3438 17.0693C57.2504 16.5998 57.0199 16.1685 56.6814 15.83C56.3429 15.4915 55.9116 15.261 55.4421 15.1676C54.9726 15.0742 54.4859 15.1221 54.0437 15.3053C53.6014 15.4885 53.2234 15.7988 52.9574 16.1968C52.6915 16.5948 52.5495 17.0628 52.5495 17.5415C52.5503 18.1832 52.8056 18.7983 53.2593 19.2521C53.7131 19.7058 54.3282 19.9611 54.9699 19.9619ZM54.9699 16.9045C55.0959 16.9045 55.219 16.9419 55.3238 17.0119C55.4285 17.0819 55.5102 17.1814 55.5584 17.2977C55.6066 17.4141 55.6192 17.5422 55.5946 17.6657C55.5701 17.7893 55.5094 17.9028 55.4203 17.9919C55.3312 18.081 55.2177 18.1416 55.0942 18.1662C54.9706 18.1908 54.8426 18.1782 54.7262 18.1299C54.6098 18.0817 54.5103 18.0001 54.4403 17.8954C54.3703 17.7906 54.333 17.6675 54.333 17.5415C54.3332 17.3726 54.4004 17.2108 54.5198 17.0914C54.6392 16.972 54.8011 16.9048 54.9699 16.9045Z" fill="#A0148E"/>
<path d="M54.9699 28.1041C55.4486 28.1041 55.9166 27.9621 56.3146 27.6962C56.7127 27.4302 57.0229 27.0522 57.2061 26.6099C57.3893 26.1677 57.4372 25.681 57.3438 25.2115C57.2504 24.742 57.0199 24.3107 56.6814 23.9722C56.3429 23.6337 55.9116 23.4032 55.4421 23.3098C54.9726 23.2164 54.4859 23.2644 54.0437 23.4475C53.6014 23.6307 53.2234 23.941 52.9574 24.339C52.6915 24.737 52.5495 25.205 52.5495 25.6837C52.5503 26.3254 52.8056 26.9405 53.2593 27.3943C53.7131 27.848 54.3282 28.1033 54.9699 28.1041ZM54.9699 25.0468C55.0959 25.0468 55.219 25.0841 55.3238 25.1541C55.4285 25.2241 55.5102 25.3236 55.5584 25.44C55.6066 25.5563 55.6192 25.6844 55.5946 25.808C55.5701 25.9315 55.5094 26.045 55.4203 26.1341C55.3312 26.2232 55.2177 26.2838 55.0942 26.3084C54.9706 26.333 54.8426 26.3204 54.7262 26.2722C54.6098 26.224 54.5103 26.1423 54.4403 26.0376C54.3703 25.9328 54.333 25.8097 54.333 25.6837C54.3332 25.5149 54.4004 25.353 54.5198 25.2336C54.6392 25.1142 54.8011 25.047 54.9699 25.0468Z" fill="#A0148E"/>
<path d="M54.9699 36.2463C55.4486 36.2463 55.9166 36.1044 56.3146 35.8384C56.7127 35.5724 57.0229 35.1944 57.2061 34.7522C57.3893 34.3099 57.4372 33.8232 57.3438 33.3537C57.2504 32.8842 57.0199 32.4529 56.6814 32.1144C56.3429 31.7759 55.9116 31.5454 55.4421 31.452C54.9726 31.3586 54.4859 31.4066 54.0437 31.5898C53.6014 31.773 53.2234 32.0832 52.9574 32.4812C52.6915 32.8792 52.5495 33.3472 52.5495 33.8259C52.5503 34.4676 52.8056 35.0828 53.2593 35.5365C53.7131 35.9902 54.3282 36.2455 54.9699 36.2463ZM54.9699 33.189C55.0959 33.189 55.219 33.2263 55.3238 33.2963C55.4285 33.3663 55.5102 33.4658 55.5584 33.5822C55.6066 33.6986 55.6192 33.8266 55.5946 33.9502C55.5701 34.0737 55.5094 34.1872 55.4203 34.2763C55.3312 34.3654 55.2177 34.426 55.0942 34.4506C54.9706 34.4752 54.8426 34.4626 54.7262 34.4144C54.6098 34.3662 54.5103 34.2845 54.4403 34.1798C54.3703 34.075 54.333 33.9519 54.333 33.8259C54.3332 33.6571 54.4004 33.4952 54.5198 33.3758C54.6392 33.2564 54.8011 33.1892 54.9699 33.189Z" fill="#A0148E"/>
<path d="M54.9699 44.3885C55.4486 44.3885 55.9166 44.2466 56.3146 43.9806C56.7127 43.7146 57.0229 43.3366 57.2061 42.8944C57.3893 42.4521 57.4372 41.9654 57.3438 41.4959C57.2504 41.0264 57.0199 40.5951 56.6814 40.2566C56.3429 39.9181 55.9116 39.6876 55.4421 39.5942C54.9726 39.5008 54.4859 39.5488 54.0437 39.732C53.6014 39.9152 53.2234 40.2254 52.9574 40.6234C52.6915 41.0215 52.5495 41.4894 52.5495 41.9681C52.5502 42.6098 52.8054 43.2251 53.2592 43.6789C53.713 44.1326 54.3282 44.3878 54.9699 44.3885ZM54.9699 41.3312C55.0959 41.3312 55.219 41.3685 55.3238 41.4385C55.4285 41.5085 55.5102 41.608 55.5584 41.7244C55.6066 41.8408 55.6192 41.9688 55.5946 42.0924C55.5701 42.2159 55.5094 42.3294 55.4203 42.4185C55.3312 42.5076 55.2177 42.5683 55.0942 42.5928C54.9706 42.6174 54.8426 42.6048 54.7262 42.5566C54.6098 42.5084 54.5103 42.4267 54.4403 42.322C54.3703 42.2172 54.333 42.0941 54.333 41.9681C54.3332 41.7993 54.4004 41.6374 54.5198 41.518C54.6392 41.3986 54.8011 41.3314 54.9699 41.3312Z" fill="#A0148E"/>
</svg>
